<mxfile host="app.diagrams.net" modified="2024-04-14T06:11:59.086Z" agent="Mozilla/5.0 (Windows NT 10.0; Win64; x64) AppleWebKit/537.36 (KHTML, like Gecko) Chrome/123.0.0.0 Safari/537.36" etag="D86IBkDfHeDXL54fWhm-" version="24.2.5" type="github">
  <diagram name="第 1 页" id="QAfpDhdsvLojvN50Khks">
    <mxGraphModel dx="1434" dy="746" grid="1" gridSize="10" guides="1" tooltips="1" connect="1" arrows="1" fold="1" page="1" pageScale="1" pageWidth="827" pageHeight="1169" math="0" shadow="0">
      <root>
        <mxCell id="0" />
        <mxCell id="1" parent="0" />
        <mxCell id="RXz8Vl6vPY0skCbQJEJf-3" value="" style="edgeStyle=orthogonalEdgeStyle;rounded=0;orthogonalLoop=1;jettySize=auto;html=1;" edge="1" parent="1" source="RXz8Vl6vPY0skCbQJEJf-1" target="RXz8Vl6vPY0skCbQJEJf-2">
          <mxGeometry relative="1" as="geometry" />
        </mxCell>
        <mxCell id="RXz8Vl6vPY0skCbQJEJf-1" value="同步" style="rounded=0;whiteSpace=wrap;html=1;fillColor=#f8cecc;strokeColor=#b85450;" vertex="1" parent="1">
          <mxGeometry x="120" y="150" width="120" height="60" as="geometry" />
        </mxCell>
        <mxCell id="RXz8Vl6vPY0skCbQJEJf-5" value="" style="edgeStyle=orthogonalEdgeStyle;rounded=0;orthogonalLoop=1;jettySize=auto;html=1;" edge="1" parent="1" source="RXz8Vl6vPY0skCbQJEJf-2" target="RXz8Vl6vPY0skCbQJEJf-4">
          <mxGeometry relative="1" as="geometry" />
        </mxCell>
        <mxCell id="RXz8Vl6vPY0skCbQJEJf-2" value="A" style="rounded=0;whiteSpace=wrap;html=1;fillColor=#d5e8d4;strokeColor=#82b366;" vertex="1" parent="1">
          <mxGeometry x="320" y="150" width="120" height="60" as="geometry" />
        </mxCell>
        <mxCell id="RXz8Vl6vPY0skCbQJEJf-7" value="" style="edgeStyle=orthogonalEdgeStyle;rounded=0;orthogonalLoop=1;jettySize=auto;html=1;" edge="1" parent="1" source="RXz8Vl6vPY0skCbQJEJf-4" target="RXz8Vl6vPY0skCbQJEJf-6">
          <mxGeometry relative="1" as="geometry" />
        </mxCell>
        <mxCell id="RXz8Vl6vPY0skCbQJEJf-4" value="B" style="rounded=0;whiteSpace=wrap;html=1;fillColor=#d5e8d4;strokeColor=#82b366;" vertex="1" parent="1">
          <mxGeometry x="520" y="150" width="120" height="60" as="geometry" />
        </mxCell>
        <mxCell id="RXz8Vl6vPY0skCbQJEJf-9" value="" style="edgeStyle=orthogonalEdgeStyle;rounded=0;orthogonalLoop=1;jettySize=auto;html=1;" edge="1" parent="1" source="RXz8Vl6vPY0skCbQJEJf-6" target="RXz8Vl6vPY0skCbQJEJf-8">
          <mxGeometry relative="1" as="geometry" />
        </mxCell>
        <mxCell id="RXz8Vl6vPY0skCbQJEJf-6" value="C" style="rounded=0;whiteSpace=wrap;html=1;fillColor=#d5e8d4;strokeColor=#82b366;" vertex="1" parent="1">
          <mxGeometry x="520" y="290" width="120" height="60" as="geometry" />
        </mxCell>
        <mxCell id="RXz8Vl6vPY0skCbQJEJf-10" style="edgeStyle=orthogonalEdgeStyle;rounded=0;orthogonalLoop=1;jettySize=auto;html=1;" edge="1" parent="1" source="RXz8Vl6vPY0skCbQJEJf-8" target="RXz8Vl6vPY0skCbQJEJf-1">
          <mxGeometry relative="1" as="geometry" />
        </mxCell>
        <mxCell id="RXz8Vl6vPY0skCbQJEJf-8" value="D" style="rounded=0;whiteSpace=wrap;html=1;fillColor=#d5e8d4;strokeColor=#82b366;" vertex="1" parent="1">
          <mxGeometry x="320" y="290" width="120" height="60" as="geometry" />
        </mxCell>
        <mxCell id="RXz8Vl6vPY0skCbQJEJf-11" value="" style="edgeStyle=orthogonalEdgeStyle;rounded=0;orthogonalLoop=1;jettySize=auto;html=1;" edge="1" parent="1" source="RXz8Vl6vPY0skCbQJEJf-12" target="RXz8Vl6vPY0skCbQJEJf-14">
          <mxGeometry relative="1" as="geometry" />
        </mxCell>
        <mxCell id="RXz8Vl6vPY0skCbQJEJf-12" value="异步" style="rounded=0;whiteSpace=wrap;html=1;fillColor=#e1d5e7;strokeColor=#9673a6;" vertex="1" parent="1">
          <mxGeometry x="120" y="410" width="120" height="60" as="geometry" />
        </mxCell>
        <mxCell id="RXz8Vl6vPY0skCbQJEJf-13" value="" style="edgeStyle=orthogonalEdgeStyle;rounded=0;orthogonalLoop=1;jettySize=auto;html=1;" edge="1" parent="1" source="RXz8Vl6vPY0skCbQJEJf-14" target="RXz8Vl6vPY0skCbQJEJf-16">
          <mxGeometry relative="1" as="geometry" />
        </mxCell>
        <mxCell id="RXz8Vl6vPY0skCbQJEJf-21" style="edgeStyle=orthogonalEdgeStyle;rounded=0;orthogonalLoop=1;jettySize=auto;html=1;" edge="1" parent="1" source="RXz8Vl6vPY0skCbQJEJf-14" target="RXz8Vl6vPY0skCbQJEJf-12">
          <mxGeometry relative="1" as="geometry">
            <mxPoint x="330" y="540" as="targetPoint" />
            <Array as="points">
              <mxPoint x="380" y="520" />
              <mxPoint x="180" y="520" />
            </Array>
          </mxGeometry>
        </mxCell>
        <mxCell id="RXz8Vl6vPY0skCbQJEJf-14" value="A" style="rounded=0;whiteSpace=wrap;html=1;fillColor=#d5e8d4;strokeColor=#82b366;" vertex="1" parent="1">
          <mxGeometry x="320" y="410" width="120" height="60" as="geometry" />
        </mxCell>
        <mxCell id="RXz8Vl6vPY0skCbQJEJf-15" value="" style="edgeStyle=orthogonalEdgeStyle;rounded=0;orthogonalLoop=1;jettySize=auto;html=1;" edge="1" parent="1" source="RXz8Vl6vPY0skCbQJEJf-16" target="RXz8Vl6vPY0skCbQJEJf-18">
          <mxGeometry relative="1" as="geometry" />
        </mxCell>
        <mxCell id="RXz8Vl6vPY0skCbQJEJf-16" value="B" style="rounded=0;whiteSpace=wrap;html=1;fillColor=#fff2cc;strokeColor=#d6b656;" vertex="1" parent="1">
          <mxGeometry x="520" y="410" width="120" height="60" as="geometry" />
        </mxCell>
        <mxCell id="RXz8Vl6vPY0skCbQJEJf-17" value="" style="edgeStyle=orthogonalEdgeStyle;rounded=0;orthogonalLoop=1;jettySize=auto;html=1;" edge="1" parent="1" source="RXz8Vl6vPY0skCbQJEJf-18" target="RXz8Vl6vPY0skCbQJEJf-20">
          <mxGeometry relative="1" as="geometry" />
        </mxCell>
        <mxCell id="RXz8Vl6vPY0skCbQJEJf-18" value="C" style="rounded=0;whiteSpace=wrap;html=1;fillColor=#fff2cc;strokeColor=#d6b656;" vertex="1" parent="1">
          <mxGeometry x="520" y="550" width="120" height="60" as="geometry" />
        </mxCell>
        <mxCell id="RXz8Vl6vPY0skCbQJEJf-20" value="D" style="rounded=0;whiteSpace=wrap;html=1;fillColor=#fff2cc;strokeColor=#d6b656;" vertex="1" parent="1">
          <mxGeometry x="320" y="550" width="120" height="60" as="geometry" />
        </mxCell>
      </root>
    </mxGraphModel>
  </diagram>
</mxfile>
